<svg xmlns="http://www.w3.org/2000/svg" viewBox="0 0 320 320">
  <defs>
    <linearGradient id="bg" x1="50" y1="34" x2="276" y2="286" gradientUnits="userSpaceOnUse">
      <stop offset="0" stop-color="#13a538"/>
      <stop offset="0.5" stop-color="#00843d"/>
      <stop offset="1" stop-color="#00643b"/>
    </linearGradient>
    <linearGradient id="petal" x1="160" y1="40" x2="160" y2="280" gradientUnits="userSpaceOnUse">
      <stop offset="0" stop-color="#f0fdf4"/>
      <stop offset="0.58" stop-color="#d1fae5"/>
      <stop offset="1" stop-color="#a7f3d0"/>
    </linearGradient>
  </defs>
  <rect width="320" height="320" rx="72" fill="#0c1f17"/>
  <rect x="24" y="24" width="272" height="272" rx="60" fill="url(#bg)"/>
  <g fill="url(#petal)" opacity="0.96">
    <ellipse cx="160" cy="70" rx="19" ry="42"/>
    <ellipse cx="160" cy="70" rx="19" ry="42" transform="rotate(30 160 160)"/>
    <ellipse cx="160" cy="70" rx="19" ry="42" transform="rotate(60 160 160)"/>
    <ellipse cx="160" cy="70" rx="19" ry="42" transform="rotate(90 160 160)"/>
    <ellipse cx="160" cy="70" rx="19" ry="42" transform="rotate(120 160 160)"/>
    <ellipse cx="160" cy="70" rx="19" ry="42" transform="rotate(150 160 160)"/>
    <ellipse cx="160" cy="70" rx="19" ry="42" transform="rotate(180 160 160)"/>
    <ellipse cx="160" cy="70" rx="19" ry="42" transform="rotate(210 160 160)"/>
    <ellipse cx="160" cy="70" rx="19" ry="42" transform="rotate(240 160 160)"/>
    <ellipse cx="160" cy="70" rx="19" ry="42" transform="rotate(270 160 160)"/>
    <ellipse cx="160" cy="70" rx="19" ry="42" transform="rotate(300 160 160)"/>
    <ellipse cx="160" cy="70" rx="19" ry="42" transform="rotate(330 160 160)"/>
  </g>
  <circle cx="160" cy="160" r="78" fill="#00643b"/>
  <circle cx="160" cy="160" r="56" fill="#f0fdf4"/>
  <path d="M117 157c16-26 44-41 82-46-11 21-26 38-45 51 28-8 50-22 67-43-7 39-30 72-69 98-17-26-28-46-35-60Z" fill="#00843d"/>
  <path d="M98 211h48l29-34 27 22 39-57" fill="none" stroke="#022c22" stroke-opacity="0.42" stroke-width="22" stroke-linecap="round" stroke-linejoin="round"/>
  <path d="M98 203h48l29-34 27 22 39-57" fill="none" stroke="#f0fdf4" stroke-width="13" stroke-linecap="round" stroke-linejoin="round"/>
  <circle cx="241" cy="134" r="15" fill="#f0fdf4"/>
</svg>
