<svg xmlns="http://www.w3.org/2000/svg" viewBox="0 0 320 320">
  <defs>
    <linearGradient id="bg" x1="56" y1="40" x2="264" y2="280" gradientUnits="userSpaceOnUse">
      <stop offset="0" stop-color="#10b981"/>
      <stop offset="1" stop-color="#00643b"/>
    </linearGradient>
  </defs>
  <rect width="320" height="320" rx="72" fill="#0c1f17"/>
  <rect x="24" y="24" width="272" height="272" rx="60" fill="url(#bg)"/>
  <path d="M82 224c6-73 47-132 132-177 13-7 29 4 26 19-16 93-70 152-158 158Z" fill="#f0fdf4"/>
  <path d="M101 207c34-25 67-60 98-105" fill="none" stroke="#00643b" stroke-width="15" stroke-linecap="round"/>
  <path d="M76 231h57l31-42 34 25 47-72" fill="none" stroke="#003d2a" stroke-opacity="0.46" stroke-width="24" stroke-linecap="round" stroke-linejoin="round"/>
  <path d="M76 221h57l31-42 34 25 47-72" fill="none" stroke="#ffffff" stroke-width="14" stroke-linecap="round" stroke-linejoin="round"/>
  <circle cx="76" cy="221" r="11" fill="#ffffff" stroke="#00643b" stroke-width="6"/>
  <circle cx="133" cy="221" r="11" fill="#ffffff" stroke="#00643b" stroke-width="6"/>
  <circle cx="164" cy="179" r="11" fill="#ffffff" stroke="#00643b" stroke-width="6"/>
  <circle cx="198" cy="204" r="11" fill="#ffffff" stroke="#00643b" stroke-width="6"/>
  <circle cx="245" cy="132" r="11" fill="#ffffff" stroke="#00643b" stroke-width="6"/>
</svg>
